<svg xmlns="http://www.w3.org/2000/svg" viewBox="0 0 816.2 153.4"><defs><style>.cls-1{fill:#16b3e0;}</style></defs><title>about</title><g id="Layer_2" data-name="Layer 2"><g id="Layer_1-2" data-name="Layer 1"><path class="cls-1" d="M104.48,132,97.66,114H39.56l-6.82,18.33q-4,10.72-6.82,14.47t-9.26,3.75a13.57,13.57,0,0,1-9.65-4,12.22,12.22,0,0,1-4.19-9.06,20.21,20.21,0,0,1,1-6q1-3.12,3.22-8.68L43.56,30l3.75-9.6A48.44,48.44,0,0,1,52,11.1a19,19,0,0,1,6.53-6,20,20,0,0,1,10-2.29A20.25,20.25,0,0,1,78.6,5.11,19.45,19.45,0,0,1,85.13,11a41.59,41.59,0,0,1,4.19,7.75q1.7,4.14,4.34,11.06L131,122q4.39,10.53,4.38,15.31a12.67,12.67,0,0,1-4.14,9.11,13.62,13.62,0,0,1-10,4.14,12.93,12.93,0,0,1-5.85-1.22,12,12,0,0,1-4.09-3.31,30.48,30.48,0,0,1-3.56-6.44Q105.85,135.28,104.48,132Z"/><path class="cls-1" d="M121.25,153.4a15.76,15.76,0,0,1-7.11-1.52,14.85,14.85,0,0,1-5-4.08,32.79,32.79,0,0,1-3.93-7.05q-1.91-4.37-3.29-7.71l0-.07-6.13-16.12H41.52l-6.14,16.49c-2.78,7.47-5.14,12.44-7.21,15.18-2.44,3.24-6.31,4.87-11.51,4.87a16.36,16.36,0,0,1-11.59-4.78A15,15,0,0,1,0,137.52a23.11,23.11,0,0,1,1.1-6.88c.68-2.17,1.75-5.07,3.29-8.89L44.69,19.38a51.51,51.51,0,0,1,5-9.85,21.92,21.92,0,0,1,7.48-6.87A22.88,22.88,0,0,1,68.51,0,23.09,23.09,0,0,1,80,2.65,22.33,22.33,0,0,1,87.45,9.4a44.58,44.58,0,0,1,4.48,8.27c1.15,2.79,2.61,6.53,4.37,11.13L133.6,121c3.09,7.41,4.59,12.77,4.59,16.36a15.43,15.43,0,0,1-5,11.11A16.4,16.4,0,0,1,121.25,153.4ZM107.1,130.93q1.35,3.28,3.23,7.56a28.07,28.07,0,0,0,3.19,5.82,9.16,9.16,0,0,0,3.15,2.54,10.26,10.26,0,0,0,4.59.92,10.81,10.81,0,0,0,8-3.32,9.88,9.88,0,0,0,3.32-7.12c0-1.92-.72-6-4.17-14.22L91,30.87c-1.76-4.61-3.21-8.31-4.33-11a39,39,0,0,0-3.91-7.22,16.75,16.75,0,0,0-5.6-5,17.6,17.6,0,0,0-8.7-1.92,17.37,17.37,0,0,0-8.6,1.92,16.34,16.34,0,0,0-5.58,5.11,46,46,0,0,0-4.39,8.77L46.18,31,9.63,123.84c-1.47,3.64-2.53,6.49-3.15,8.48a17.51,17.51,0,0,0-.85,5.2,9.44,9.44,0,0,0,3.32,7,10.76,10.76,0,0,0,7.71,3.22c3.38,0,5.68-.86,7-2.63,1.18-1.56,3.25-5.22,6.43-13.76l7.51-20.16h62Z"/><path class="cls-1" d="M241.6,148.15H197.93q-9.46,0-13.5-4.24t-4-13.5V23q0-9.45,4.14-13.6t13.4-4.14h46.3A108,108,0,0,1,262,6.52a37.84,37.84,0,0,1,13.45,4.87,35.37,35.37,0,0,1,9,7.65,33.76,33.76,0,0,1,5.95,10.23,34.25,34.25,0,0,1,2,11.84q0,21.44-21.44,31.38,28.17,9,28.17,34.9A39.21,39.21,0,0,1,293,129a36.86,36.86,0,0,1-16.57,14.18,58.84,58.84,0,0,1-15,3.85A152.77,152.77,0,0,1,241.6,148.15Z"/><path class="cls-1" d="M241.6,151H197.93c-7.07,0-12.3-1.72-15.54-5.11s-4.82-8.55-4.82-15.44V23c0-7.05,1.67-12.3,5-15.59s8.48-5,15.39-5h46.3a111.42,111.42,0,0,1,18.21,1.31A40.82,40.82,0,0,1,276.88,9a38.28,38.28,0,0,1,9.66,8.24A36.74,36.74,0,0,1,293,28.31a37.23,37.23,0,0,1,2.22,12.81c0,13.39-5.86,23.77-17.43,30.92,16,6.87,24.15,18.75,24.15,35.37a42.16,42.16,0,0,1-6.58,23.11,39.8,39.8,0,0,1-17.81,15.24,61.89,61.89,0,0,1-15.78,4.06A156.36,156.36,0,0,1,241.6,151ZM197.93,8.07c-5.37,0-9.21,1.12-11.41,3.32S183.2,17.49,183.2,23V130.41c0,5.4,1.1,9.28,3.27,11.56s6,3.37,11.46,3.37H241.6a150.63,150.63,0,0,0,19.42-1.1,56.31,56.31,0,0,0,14.29-3.66,34.22,34.22,0,0,0,15.28-13.1,36.61,36.61,0,0,0,5.7-20.07c0-16.06-8.57-26.6-26.21-32.21l-6.9-2.2,6.56-3c13.33-6.18,19.81-15.61,19.81-28.83a31.58,31.58,0,0,0-1.88-10.88,31.12,31.12,0,0,0-5.45-9.39,32.73,32.73,0,0,0-8.26-7A35.19,35.19,0,0,0,261.5,9.3a105.54,105.54,0,0,0-17.27-1.23Z"/><path class="cls-1" d="M411,2.82q22.23,0,38.16,9a58.43,58.43,0,0,1,24.13,25.64q8.19,16.62,8.19,39A95.56,95.56,0,0,1,477,106.62a65.32,65.32,0,0,1-13.45,23.49,58.82,58.82,0,0,1-22,15.2q-13.06,5.26-29.92,5.26t-30-5.41a59.52,59.52,0,0,1-22.13-15.26A65.13,65.13,0,0,1,346,106.23a95.6,95.6,0,0,1-4.53-29.92,92.38,92.38,0,0,1,4.73-30.22A64.83,64.83,0,0,1,359.9,22.7,59.22,59.22,0,0,1,381.74,7.93Q394.6,2.82,411,2.82Z"/><path class="cls-1" d="M411.56,153.4a82,82,0,0,1-31.08-5.62,62.58,62.58,0,0,1-23.15-16,68.23,68.23,0,0,1-14-24.69,98.86,98.86,0,0,1-4.67-30.8,95.6,95.6,0,0,1,4.88-31.13,67.92,67.92,0,0,1,14.3-24.4A62.27,62.27,0,0,1,380.7,5.32,81.72,81.72,0,0,1,411,0c15.24,0,28.55,3.16,39.55,9.38a61.46,61.46,0,0,1,25.27,26.84c5.62,11.42,8.48,25,8.48,40.28a98.8,98.8,0,0,1-4.63,31,68.36,68.36,0,0,1-14,24.49,61.87,61.87,0,0,1-23.07,15.93C433.54,151.56,423.12,153.4,411.56,153.4ZM411,5.63a76.17,76.17,0,0,0-28.2,4.92A56.69,56.69,0,0,0,362,24.62,62.3,62.3,0,0,0,348.87,47a90,90,0,0,0-4.57,29.3,93.23,93.23,0,0,0,4.39,29A62.67,62.67,0,0,0,361.51,128a57,57,0,0,0,21.1,14.53,76.45,76.45,0,0,0,29,5.2c10.83,0,20.54-1.7,28.87-5.06a56.24,56.24,0,0,0,21-14.48,62.81,62.81,0,0,0,12.87-22.49,93.18,93.18,0,0,0,4.34-29.23c0-14.44-2.66-27.15-7.9-37.79a55.93,55.93,0,0,0-23-24.43C437.61,8.54,425.23,5.63,411,5.63Z"/><path class="cls-1" d="M530.36,89.08V20.36q0-8.77,3.95-13.16a13.29,13.29,0,0,1,10.38-4.39q6.73,0,10.67,4.39t3.95,13.16V90.64q0,12,2.68,20a23.1,23.1,0,0,0,9.5,12.48q6.82,4.44,19.1,4.44,17,0,24-9t7-27.34V20.36q0-8.87,3.9-13.21a13.34,13.34,0,0,1,10.43-4.34,13.8,13.8,0,0,1,10.58,4.34q4,4.34,4,13.21V89.08q0,16.77-3.27,28a43.16,43.16,0,0,1-12.33,19.69,47.9,47.9,0,0,1-18.13,10.53,79.35,79.35,0,0,1-24.18,3.31q-16.47,0-28.36-3.56a45.38,45.38,0,0,1-19.4-11,44.42,44.42,0,0,1-11-19.1Q530.36,105.26,530.36,89.08Z"/><path class="cls-1" d="M592.64,153.4c-11.2,0-21-1.24-29.17-3.67A48.39,48.39,0,0,1,542.89,138a47.41,47.41,0,0,1-11.73-20.29c-2.41-8-3.63-17.63-3.63-28.64V20.36c0-6.54,1.57-11.6,4.67-15A16.06,16.06,0,0,1,544.69,0c5.29,0,9.59,1.79,12.77,5.32s4.67,8.5,4.67,15V90.64c0,7.64.85,14.08,2.54,19.14a20.2,20.2,0,0,0,8.37,11c4.06,2.64,10,4,17.57,4,10.34,0,17.66-2.67,21.76-7.93,4.26-5.47,6.42-14.09,6.42-25.61V20.36c0-6.6,1.56-11.68,4.62-15.09A16.11,16.11,0,0,1,635.92,0a16.57,16.57,0,0,1,12.64,5.23c3.19,3.42,4.8,8.51,4.8,15.13V89.08c0,11.4-1.14,21.08-3.38,28.76a46.14,46.14,0,0,1-13.11,21A50.94,50.94,0,0,1,617.68,150,82.54,82.54,0,0,1,592.64,153.4Zm-48-147.76a10.51,10.51,0,0,0-8.29,3.45c-2.14,2.38-3.23,6.17-3.23,11.27V89.08c0,10.46,1.14,19.55,3.39,27A41.83,41.83,0,0,0,546.87,134a42.79,42.79,0,0,0,18.22,10.31c7.63,2.28,16.9,3.44,27.55,3.44A76.91,76.91,0,0,0,616,144.58,45.28,45.28,0,0,0,633,134.67a40.54,40.54,0,0,0,11.54-18.41c2.09-7.17,3.15-16.32,3.15-27.19V20.36c0-5.15-1.11-8.94-3.29-11.29a11,11,0,0,0-8.52-3.44A10.56,10.56,0,0,0,627.58,9c-2.11,2.35-3.18,6.16-3.18,11.32V91.22c0,12.8-2.56,22.59-7.61,29.07-5.22,6.71-14,10.1-26.2,10.1-8.71,0-15.65-1.65-20.64-4.89a26,26,0,0,1-10.64-13.95c-1.88-5.63-2.83-12.67-2.83-20.92V20.36c0-5.11-1.08-8.9-3.22-11.27S548.37,5.63,544.69,5.63Z"/><path class="cls-1" d="M798.57,29.13H767V132.94q0,9-4,13.3a13.41,13.41,0,0,1-10.33,4.34,13.61,13.61,0,0,1-10.48-4.38q-4-4.39-4-13.26V29.13H706.56q-7.41,0-11-3.27a11.07,11.07,0,0,1-3.61-8.63,11,11,0,0,1,3.75-8.77q3.75-3.21,10.87-3.22h92q7.5,0,11.16,3.32a11.16,11.16,0,0,1,3.66,8.67,10.94,10.94,0,0,1-3.71,8.63Q806,29.13,798.57,29.13Z"/><path class="cls-1" d="M752.66,153.4a16.38,16.38,0,0,1-12.55-5.29c-3.18-3.45-4.79-8.55-4.79-15.17V32H706.56c-5.64,0-10-1.34-12.91-4a13.82,13.82,0,0,1-4.53-10.71,13.7,13.7,0,0,1,4.74-10.91c3-2.58,7.29-3.89,12.7-3.89h92c5.7,0,10.09,1.36,13.05,4a13.92,13.92,0,0,1,4.58,10.76A13.69,13.69,0,0,1,811.55,28c-3,2.63-7.36,4-13,4H769.8v101c0,6.68-1.6,11.8-4.74,15.21A16.17,16.17,0,0,1,752.66,153.4ZM706.56,8.07c-4,0-7.07.85-9,2.54a8.2,8.2,0,0,0-2.77,6.64,8.31,8.31,0,0,0,2.68,6.54c1.86,1.68,4.93,2.54,9.13,2.54H741V132.94c0,5.16,1.11,9,3.3,11.35a10.81,10.81,0,0,0,8.41,3.48,10.62,10.62,0,0,0,8.26-3.43c2.16-2.34,3.25-6.17,3.25-11.39V26.32h34.4c4.21,0,7.32-.86,9.25-2.56a8.17,8.17,0,0,0,2.75-6.51,8.39,8.39,0,0,0-2.73-6.59c-1.89-1.72-5-2.59-9.27-2.59Z"/></g></g></svg>