<svg xmlns="http://www.w3.org/2000/svg" viewBox="0 0 583.88 144.34"><defs><style>.cls-1{fill:#fff;}</style></defs><title>blog</title><g id="Layer_2" data-name="Layer 2"><g id="Layer_1-2" data-name="Layer 1"><path class="cls-1" d="M60.25,139.4H19.16q-8.9,0-12.7-4t-3.81-12.7V21.63q0-8.9,3.9-12.79t12.61-3.9H62.73A101.62,101.62,0,0,1,79.42,6.13a35.6,35.6,0,0,1,12.66,4.59,33.28,33.28,0,0,1,8.44,7.2,31.77,31.77,0,0,1,5.6,9.63A32.23,32.23,0,0,1,108,38.69q0,20.18-20.18,29.53,26.51,8.44,26.51,32.84a36.9,36.9,0,0,1-5.78,20.31A34.68,34.68,0,0,1,93,134.72a55.36,55.36,0,0,1-14.12,3.62A143.75,143.75,0,0,1,60.25,139.4Z"/><path class="cls-1" d="M60.25,142H19.16c-6.66,0-11.57-1.62-14.62-4.81S0,129.19,0,122.7V21.63C0,15,1.57,10.07,4.68,7s8-4.68,14.48-4.68H62.73A104.74,104.74,0,0,1,79.86,3.52,38.42,38.42,0,0,1,93.45,8.45a36.08,36.08,0,0,1,9.09,7.76,34.52,34.52,0,0,1,6.06,10.43,35,35,0,0,1,2.09,12.05c0,12.6-5.51,22.36-16.4,29.09C109.37,74.25,117,85.43,117,101.06a39.67,39.67,0,0,1-6.19,21.74,37.45,37.45,0,0,1-16.76,14.34A58.24,58.24,0,0,1,79.21,141,147.13,147.13,0,0,1,60.25,142ZM19.16,7.59c-5.05,0-8.66,1.05-10.74,3.12S5.3,16.46,5.3,21.63V122.7c0,5.08,1,8.74,3.07,10.87s5.64,3.17,10.79,3.17H60.25a141.74,141.74,0,0,0,18.27-1A53,53,0,0,0,92,132.28a32.2,32.2,0,0,0,14.38-12.33,34.45,34.45,0,0,0,5.36-18.88c0-15.11-8.07-25-24.66-30.31l-6.49-2.07,6.18-2.86C99.28,60,105.38,51.13,105.38,38.69a29.72,29.72,0,0,0-1.76-10.23,29.26,29.26,0,0,0-5.13-8.83A30.77,30.77,0,0,0,90.72,13,33.1,33.1,0,0,0,79,8.75,99.42,99.42,0,0,0,62.73,7.59Z"/><path class="cls-1" d="M187.16,19.16V117h55.21q6.6,0,10.13,3.21A10.46,10.46,0,0,1,256,128.3a10.19,10.19,0,0,1-3.49,8q-3.49,3.07-10.18,3.07H176.61q-8.9,0-12.79-3.94t-3.9-12.75V19.16q0-8.25,3.71-12.38a12.51,12.51,0,0,1,9.77-4.13,13,13,0,0,1,10,4.08Q187.16,10.81,187.16,19.16Z"/><path class="cls-1" d="M242.38,142H176.61c-6.64,0-11.58-1.59-14.68-4.73s-4.66-8-4.66-14.62V19.16c0-6.15,1.48-10.92,4.4-14.15a15.1,15.1,0,0,1,11.74-5,15.59,15.59,0,0,1,11.89,4.92c3,3.22,4.52,8,4.52,14.24v95.21h52.56c5.06,0,9.07,1.31,11.92,3.9a13.06,13.06,0,0,1,4.4,10,12.78,12.78,0,0,1-4.38,10C251.5,140.79,247.48,142,242.38,142ZM173.41,5.3a9.89,9.89,0,0,0-7.8,3.25c-2,2.24-3,5.8-3,10.61V122.7c0,5.12,1.05,8.79,3.13,10.89s5.74,3.15,10.91,3.15h65.76c3.78,0,6.61-.81,8.43-2.41a7.59,7.59,0,0,0,2.59-6,7.85,7.85,0,0,0-2.67-6.11c-1.84-1.67-4.64-2.52-8.35-2.52H184.51V19.16c0-4.84-1-8.42-3.1-10.62A10.36,10.36,0,0,0,173.41,5.3Z"/><path class="cls-1" d="M346.27,2.65q20.91,0,35.9,8.48a55,55,0,0,1,22.7,24.12q7.7,15.64,7.7,36.73a89.91,89.91,0,0,1-4.22,28.34,61.46,61.46,0,0,1-12.66,22.1A55.34,55.34,0,0,1,375,136.74q-12.29,5-28.16,4.95a74.2,74.2,0,0,1-28.25-5.09,56,56,0,0,1-20.82-14.35A61.28,61.28,0,0,1,285.14,100a90,90,0,0,1-4.27-28.16,86.92,86.92,0,0,1,4.45-28.43,61,61,0,0,1,12.89-22A55.74,55.74,0,0,1,318.75,7.47,74,74,0,0,1,346.27,2.65Z"/><path class="cls-1" d="M346.82,144.34a77.16,77.16,0,0,1-29.25-5.28,58.92,58.92,0,0,1-21.79-15,64.2,64.2,0,0,1-13.16-23.24,93,93,0,0,1-4.4-29,90,90,0,0,1,4.59-29.3,64,64,0,0,1,13.45-23A58.61,58.61,0,0,1,317.78,5a76.89,76.89,0,0,1,28.49-5c14.34,0,26.86,3,37.21,8.82a57.85,57.85,0,0,1,23.78,25.26c5.29,10.75,8,23.5,8,37.9a93,93,0,0,1-4.35,29.17,64.36,64.36,0,0,1-13.2,23,58.24,58.24,0,0,1-21.71,15C367.5,142.61,357.69,144.34,346.82,144.34Zm-.55-139a71.67,71.67,0,0,0-26.54,4.63,53.35,53.35,0,0,0-19.58,13.23,58.69,58.69,0,0,0-12.32,21.07,84.71,84.71,0,0,0-4.3,27.57,87.72,87.72,0,0,0,4.13,27.33,58.93,58.93,0,0,0,12.06,21.34,53.66,53.66,0,0,0,19.85,13.67A71.93,71.93,0,0,0,346.82,139c10.19,0,19.33-1.6,27.17-4.76a53,53,0,0,0,19.75-13.62A59.14,59.14,0,0,0,405.85,99.5,87.72,87.72,0,0,0,409.93,72c0-13.59-2.5-25.55-7.43-35.56a52.64,52.64,0,0,0-21.63-23C371.32,8,359.68,5.3,346.27,5.3Z"/><path class="cls-1" d="M581.23,84.74v25.77a27.14,27.14,0,0,1-1,8.21,13,13,0,0,1-3.72,5.55,34.82,34.82,0,0,1-6.92,4.77,108.82,108.82,0,0,1-23.48,9.63,94.63,94.63,0,0,1-24.58,3,80.12,80.12,0,0,1-28.25-4.77,59.41,59.41,0,0,1-21.74-13.85,61.16,61.16,0,0,1-13.8-22,82.27,82.27,0,0,1-4.82-28.89,84.45,84.45,0,0,1,4.68-28.71,58.92,58.92,0,0,1,13.76-22.1,60.35,60.35,0,0,1,22.1-13.89A84.72,84.72,0,0,1,523,2.65a73.24,73.24,0,0,1,24,3.62,52.89,52.89,0,0,1,17,9.12A40.69,40.69,0,0,1,573.8,27q3.31,6.15,3.3,10.91a11.66,11.66,0,0,1-3.8,8.76,12.78,12.78,0,0,1-9.13,3.63A12.3,12.3,0,0,1,558.52,49,12.81,12.81,0,0,1,554,45.11a108.7,108.7,0,0,0-8.53-11.92,27.55,27.55,0,0,0-9.4-6.79q-5.92-2.75-15.09-2.75a41.66,41.66,0,0,0-16.87,3.26,34.84,34.84,0,0,0-12.7,9.45,42.57,42.57,0,0,0-8.07,15.18,66.73,66.73,0,0,0-2.8,19.9q0,23.66,10.87,36.41T521.7,120.6a61.79,61.79,0,0,0,17.75-2.48,89.81,89.81,0,0,0,16.83-7.06V89.23h-21.1q-7.61,0-11.51-2.29t-3.9-7.8A9.57,9.57,0,0,1,523,71.71q3.26-2.93,8.85-2.93h30.91a39.35,39.35,0,0,1,9.63,1,10.87,10.87,0,0,1,6.38,4.5Q581.22,77.76,581.23,84.74Z"/><path class="cls-1" d="M521.52,144.34a83.12,83.12,0,0,1-29.18-4.94,62.27,62.27,0,0,1-22.69-14.47A64,64,0,0,1,455.25,102a85.25,85.25,0,0,1-5-29.82,87.47,87.47,0,0,1,4.83-29.6,61.84,61.84,0,0,1,14.38-23.08A63.24,63.24,0,0,1,492.54,5,87.74,87.74,0,0,1,523,0a76.17,76.17,0,0,1,24.9,3.77,55.73,55.73,0,0,1,17.81,9.6,43.46,43.46,0,0,1,10.44,12.42c2.4,4.46,3.62,8.56,3.62,12.17a14.26,14.26,0,0,1-4.63,10.68,15.4,15.4,0,0,1-11,4.36,15,15,0,0,1-6.84-1.67,15.52,15.52,0,0,1-5.47-4.63l-.1-.15a106.54,106.54,0,0,0-8.3-11.62,25.06,25.06,0,0,0-8.51-6.12c-3.57-1.66-8.27-2.5-14-2.5a39.24,39.24,0,0,0-15.81,3,32.37,32.37,0,0,0-11.75,8.74,40.13,40.13,0,0,0-7.56,14.24,64.39,64.39,0,0,0-2.68,19.12c0,15.05,3.44,26.73,10.23,34.69s16,11.81,28.3,11.81a59.41,59.41,0,0,0,17-2.37,86.55,86.55,0,0,0,14.94-6.12V91.88H535.18c-5.61,0-9.82-.87-12.86-2.66-2.37-1.4-5.2-4.28-5.2-10.08a12.16,12.16,0,0,1,4.13-9.4c2.66-2.4,6.24-3.62,10.62-3.62h30.91a42.05,42.05,0,0,1,10.29,1.09A13.49,13.49,0,0,1,581,72.77c2,2.8,2.9,6.72,2.9,12v25.77a29.46,29.46,0,0,1-1.14,9,15.7,15.7,0,0,1-4.45,6.68,37.49,37.49,0,0,1-7.45,5.14,111.94,111.94,0,0,1-24.06,9.86A97.66,97.66,0,0,1,521.52,144.34ZM523,5.3A82.48,82.48,0,0,0,494.37,10a58,58,0,0,0-21.15,13.28,56.57,56.57,0,0,0-13.14,21.13,82.16,82.16,0,0,0-4.52,27.81,80,80,0,0,0,4.65,28,58.83,58.83,0,0,0,13.2,21.07,57,57,0,0,0,20.78,13.23,77.85,77.85,0,0,0,27.32,4.6,92.41,92.41,0,0,0,23.89-2.94,106.73,106.73,0,0,0,22.9-9.4,32.23,32.23,0,0,0,6.4-4.39,10.34,10.34,0,0,0,3-4.42,24.82,24.82,0,0,0,.87-7.38V84.74c0-4.07-.66-7.08-2-8.94a8.23,8.23,0,0,0-4.86-3.44,36.9,36.9,0,0,0-9-.93H531.88c-3.08,0-5.39.74-7.08,2.25a7,7,0,0,0-2.38,5.46c0,3.57,1.48,4.86,2.59,5.51,2.17,1.28,5.59,1.93,10.17,1.93h23.75v26.06l-1.4.75a93,93,0,0,1-17.33,7.27,64.7,64.7,0,0,1-18.51,2.59c-13.71,0-24.59-4.6-32.33-13.68s-11.5-21.78-11.5-38.13a69.72,69.72,0,0,1,2.92-20.69,45.36,45.36,0,0,1,8.58-16.11A37.61,37.61,0,0,1,503,24.48,44.49,44.49,0,0,1,521,21c6.47,0,11.92,1,16.21,3a30.29,30.29,0,0,1,10.29,7.46,111.3,111.3,0,0,1,8.7,12.15,10.1,10.1,0,0,0,3.56,3,9.61,9.61,0,0,0,4.44,1.09,10.13,10.13,0,0,0,7.3-2.9,9,9,0,0,0,3-6.84c0-2.72-1-6-3-9.66a38.24,38.24,0,0,0-9.19-10.88,50.52,50.52,0,0,0-16.13-8.64A71,71,0,0,0,523,5.3Z"/></g></g></svg>