<svg xmlns="http://www.w3.org/2000/svg" viewBox="0 0 836 165.79"><defs><style>.cls-1{fill:#16b3e0;}</style></defs><title>store</title><g id="Layer_2" data-name="Layer 2"><g id="Layer_1-2" data-name="Layer 1"><path class="cls-1" d="M125.77,113.76a45.39,45.39,0,0,1-7.22,25.18q-7.22,11.17-21.12,17.49t-33,6.32q-22.86,0-37.71-8.63A50.27,50.27,0,0,1,9.63,137.52Q3,127.14,3,117.34a13.67,13.67,0,0,1,14-13.8,11.91,11.91,0,0,1,8.38,3.16,24.86,24.86,0,0,1,5.85,9.38,62.69,62.69,0,0,0,6.37,12.32,25.84,25.84,0,0,0,9.64,8.17q6.21,3.21,16.33,3.21,13.91,0,22.6-6.48t8.69-16.17q0-7.69-4.69-12.49A30.24,30.24,0,0,0,78.1,97.33Q70.67,94.8,58.24,92a145.6,145.6,0,0,1-27.86-9.11,45,45,0,0,1-17.8-14.22Q6,59.61,6,46.23a38.45,38.45,0,0,1,7-22.65q7-9.9,20.12-15.22T64,3q14.22,0,24.6,3.53a52,52,0,0,1,17.22,9.37,39.13,39.13,0,0,1,10,12.27A28.3,28.3,0,0,1,119,40.76a14.81,14.81,0,0,1-4,10.06,12.59,12.59,0,0,1-9.85,4.48q-5.37,0-8.16-2.69A36.17,36.17,0,0,1,91,43.81,39.86,39.86,0,0,0,80.89,30.17q-5.9-4.9-19-4.9-12.11,0-19.54,5.32T35,43.39a13,13,0,0,0,2.53,8,21.24,21.24,0,0,0,7,5.79,46.7,46.7,0,0,0,9,3.79q4.53,1.37,15,4A235.59,235.59,0,0,1,92,71.73a72,72,0,0,1,18,9A36.86,36.86,0,0,1,121.61,94Q125.77,102.07,125.77,113.76Z"/><path class="cls-1" d="M64.46,165.79c-15.72,0-28.93-3-39.25-9A53.54,53.54,0,0,1,7.06,139.15C2.37,131.77,0,124.43,0,117.34A16.72,16.72,0,0,1,17.05,100.5a14.91,14.91,0,0,1,10.44,4A27.89,27.89,0,0,1,34.11,115a60,60,0,0,0,6,11.7,23,23,0,0,0,8.53,7.19c3.69,1.9,8.71,2.87,14.93,2.87,8.56,0,15.55-2,20.78-5.88,5-3.75,7.47-8.24,7.47-13.73,0-4.34-1.25-7.73-3.82-10.36a27.38,27.38,0,0,0-10.92-6.56c-4.83-1.65-11.41-3.43-19.56-5.29A149.27,149.27,0,0,1,29.1,85.6a48.19,48.19,0,0,1-19-15.19C5.36,63.91,2.95,55.77,2.95,46.23a41.6,41.6,0,0,1,7.51-24.4c5-7.06,12.18-12.54,21.47-16.29C41,1.86,51.83,0,64,0c9.77,0,18.38,1.24,25.58,3.69a55.31,55.31,0,0,1,18.22,9.94A42.33,42.33,0,0,1,118.6,26.88a31.43,31.43,0,0,1,3.47,13.88,17.83,17.83,0,0,1-4.71,12.08,15.57,15.57,0,0,1-12.13,5.51c-4.38,0-7.84-1.19-10.28-3.54a38.62,38.62,0,0,1-6.63-9.55,37.29,37.29,0,0,0-9.37-12.73c-3.36-2.79-9.08-4.2-17-4.2-7.39,0-13.37,1.6-17.77,4.75C40,36,38,39.41,38,43.39a9.91,9.91,0,0,0,1.92,6.18,18.33,18.33,0,0,0,6,4.95,43.86,43.86,0,0,0,8.37,3.55c3,.91,8,2.24,14.82,4A239.46,239.46,0,0,1,93,68.85a75.28,75.28,0,0,1,18.77,9.35,40.06,40.06,0,0,1,12.53,14.41c3,5.78,4.5,12.9,4.5,21.15a48.58,48.58,0,0,1-7.7,26.83c-5.11,7.91-12.65,14.17-22.42,18.6S77.55,165.79,64.46,165.79Zm-47.41-59.2a10.63,10.63,0,0,0-11,10.76c0,5.91,2.06,12.15,6.11,18.55a47.48,47.48,0,0,0,16.09,15.6c9.36,5.45,21.54,8.21,36.17,8.21,12.22,0,22.89-2,31.71-6s15.36-9.46,19.82-16.37a42.58,42.58,0,0,0,6.73-23.52c0-7.27-1.29-13.45-3.82-18.36a34,34,0,0,0-10.65-12.24A69.22,69.22,0,0,0,91,74.6a233.8,233.8,0,0,0-23.34-6.65c-7-1.76-12.06-3.12-15.15-4.05a50,50,0,0,1-9.54-4,24.31,24.31,0,0,1-7.92-6.64,16,16,0,0,1-3.14-9.83c0-6,2.93-11.14,8.7-15.28,5.46-3.91,12.63-5.89,21.32-5.89,9.53,0,16.37,1.83,20.91,5.6A43,43,0,0,1,93.75,42.49a33.23,33.23,0,0,0,5.43,7.92c1.26,1.22,3.3,1.84,6.05,1.84a9.6,9.6,0,0,0,7.57-3.45,11.76,11.76,0,0,0,3.19-8,25.42,25.42,0,0,0-2.85-11.19,36.31,36.31,0,0,0-9.25-11.3A49.28,49.28,0,0,0,87.65,9.46C81.09,7.22,73.14,6.09,64,6.09c-11.42,0-21.46,1.71-29.83,5.1C26,14.49,19.71,19.25,15.44,25.33A35.63,35.63,0,0,0,9,46.23c0,8.22,2,15.15,6,20.59A42.19,42.19,0,0,0,31.66,80.08,143.44,143.44,0,0,0,58.94,89c8.34,1.91,15.12,3.74,20.15,5.46a33.37,33.37,0,0,1,13.31,8.07c3.69,3.77,5.56,8.69,5.56,14.61,0,7.44-3.34,13.7-9.92,18.61-6.3,4.7-14.52,7.08-24.42,7.08-7.2,0-13.16-1.2-17.73-3.55a29,29,0,0,1-10.75-9.14,66,66,0,0,1-6.69-12.92,22.09,22.09,0,0,0-5.08-8.27A8.88,8.88,0,0,0,17.05,106.58Z"/><path class="cls-1" d="M278.49,31.49H244.36V143.68q0,9.7-4.32,14.38a14.5,14.5,0,0,1-11.17,4.69A14.71,14.71,0,0,1,217.55,158q-4.37-4.74-4.37-14.33V31.49H179q-8,0-11.91-3.53a12,12,0,0,1-3.9-9.32,11.84,11.84,0,0,1,4.06-9.48Q171.36,5.68,179,5.68h99.45q8.11,0,12.06,3.58a12.05,12.05,0,0,1,3.95,9.37,11.83,11.83,0,0,1-4,9.32Q286.5,31.49,278.49,31.49Z"/><path class="cls-1" d="M228.88,165.79a17.7,17.7,0,0,1-13.56-5.72c-3.44-3.73-5.18-9.24-5.18-16.39V34.53H179c-6.09,0-10.79-1.45-13.95-4.32a15,15,0,0,1-4.9-11.58,14.8,14.8,0,0,1,5.12-11.79C168.58,4,173.2,2.63,179,2.63H278.5c6.16,0,10.91,1.47,14.11,4.37a15,15,0,0,1,4.95,11.63,14.8,14.8,0,0,1-5,11.61c-3.23,2.85-7.95,4.29-14,4.29H247.41V143.68c0,7.22-1.72,12.75-5.12,16.44A17.5,17.5,0,0,1,228.88,165.79ZM179,8.72c-4.35,0-7.64.92-9.77,2.74a8.86,8.86,0,0,0-3,7.17,9,9,0,0,0,2.9,7.07c2,1.82,5.33,2.74,9.86,2.74h37.18V143.68c0,5.57,1.2,9.7,3.57,12.26a11.68,11.68,0,0,0,9.09,3.76,11.49,11.49,0,0,0,8.93-3.71c2.33-2.53,3.51-6.67,3.51-12.31V28.44H278.5c4.55,0,7.91-.93,10-2.77a8.84,8.84,0,0,0,3-7,9.07,9.07,0,0,0-2.95-7.12c-2-1.86-5.42-2.8-10-2.8Z"/><path class="cls-1" d="M404,3q24,0,41.24,9.74a63.18,63.18,0,0,1,26.07,27.71q8.85,18,8.85,42.19a103.05,103.05,0,0,1-4.85,32.55,70.37,70.37,0,0,1-14.54,25.39A63.6,63.6,0,0,1,437,157.06q-14.12,5.69-32.34,5.69t-32.45-5.84a64.33,64.33,0,0,1-23.91-16.49,70.39,70.39,0,0,1-14.48-25.6,103.32,103.32,0,0,1-4.9-32.34A99.84,99.84,0,0,1,334,49.82a70.06,70.06,0,0,1,14.8-25.28,64,64,0,0,1,23.6-16Q386.34,3,404,3Z"/><path class="cls-1" d="M404.67,165.79c-12.42,0-23.73-2-33.6-6.07a67.64,67.64,0,0,1-25-17.27,73.77,73.77,0,0,1-15.12-26.69,106.84,106.84,0,0,1-5-33.29,103.35,103.35,0,0,1,5.27-33.65,73.44,73.44,0,0,1,15.45-26.37,67.34,67.34,0,0,1,24.7-16.71C380.9,1.93,391.91,0,404,0c16.47,0,30.85,3.41,42.74,10.14a66.47,66.47,0,0,1,27.3,29c6.08,12.34,9.16,27,9.16,43.53a106.6,106.6,0,0,1-5,33.51,73.74,73.74,0,0,1-15.17,26.47,66.92,66.92,0,0,1-24.93,17.22C428.43,163.8,417.16,165.79,404.67,165.79ZM404,6.09c-11.36,0-21.61,1.79-30.48,5.31a61.29,61.29,0,0,0-22.49,15.2,67.38,67.38,0,0,0-14.15,24.2A97.28,97.28,0,0,0,332,82.48a100.79,100.79,0,0,0,4.75,31.39,67.71,67.71,0,0,0,13.85,24.51,61.63,61.63,0,0,0,22.8,15.71c9.13,3.73,19.67,5.62,31.3,5.62s22.21-1.84,31.21-5.46a60.86,60.86,0,0,0,22.68-15.65,67.73,67.73,0,0,0,13.91-24.31,100.55,100.55,0,0,0,4.69-31.6c0-15.61-2.87-29.35-8.53-40.84a60.47,60.47,0,0,0-24.84-26.4C432.82,9.23,419.44,6.09,404,6.09Z"/><path class="cls-1" d="M574.88,94.06h-11v49.62q0,9.79-4.32,14.43a14.71,14.71,0,0,1-11.27,4.63q-7.48,0-11.59-4.85t-4.11-14.22V24.85q0-10.11,4.53-14.64t14.64-4.53H602.7a154.8,154.8,0,0,1,18,.9,45.27,45.27,0,0,1,13.48,3.63A39,39,0,0,1,647,19a38.29,38.29,0,0,1,8.48,13.22,44.06,44.06,0,0,1,2.9,16q0,17.28-9.75,27.6T619.13,90.37A57.25,57.25,0,0,1,635,103.44a132.39,132.39,0,0,1,13.54,18.38,136.34,136.34,0,0,1,9.27,17.59q3.32,7.85,3.32,10.8a11,11,0,0,1-2,6.06,13.65,13.65,0,0,1-5.32,4.74,16.74,16.74,0,0,1-7.79,1.74,15.2,15.2,0,0,1-8.85-2.47,23.7,23.7,0,0,1-6.16-6.27q-2.58-3.79-7-11.17L611.54,122a115,115,0,0,0-12.06-17.49q-5.32-6-10.8-8.22A37.13,37.13,0,0,0,574.88,94.06Z"/><path class="cls-1" d="M646.1,165.79a18.25,18.25,0,0,1-10.58-3,26.82,26.82,0,0,1-6.95-7.06c-1.75-2.57-4.08-6.28-7.1-11.31l-12.54-20.85a112.65,112.65,0,0,0-11.73-17,27,27,0,0,0-9.66-7.41,34.4,34.4,0,0,0-12.66-2H567v46.57c0,7.29-1.73,12.85-5.14,16.51a17.7,17.7,0,0,1-13.5,5.6c-5.9,0-10.58-2-13.91-5.92-3.2-3.77-4.83-9.22-4.83-16.19V24.85c0-7.55,1.82-13.2,5.42-16.79s9.25-5.42,16.79-5.42H602.7a158.43,158.43,0,0,1,18.38.92,48.53,48.53,0,0,1,14.39,3.89,42.09,42.09,0,0,1,13.76,9.38,41.5,41.5,0,0,1,9.15,14.26,47.3,47.3,0,0,1,3.1,17.05c0,12.27-3.56,22.26-10.58,29.69-5.69,6-13.8,10.63-24.19,13.75a66.92,66.92,0,0,1,10.62,9.86,135.8,135.8,0,0,1,13.85,18.8,140.24,140.24,0,0,1,9.48,18c3.19,7.55,3.56,10.46,3.56,12a14.08,14.08,0,0,1-2.44,7.72,16.74,16.74,0,0,1-6.48,5.79A19.82,19.82,0,0,1,646.1,165.79ZM560.89,91h14a40.27,40.27,0,0,1,14.94,2.43c4.07,1.64,8.09,4.68,11.93,9a118.19,118.19,0,0,1,12.41,18l12.52,20.83c2.92,4.87,5.25,8.58,6.91,11a20.77,20.77,0,0,0,5.37,5.48,12.15,12.15,0,0,0,7.12,1.93,13.81,13.81,0,0,0,6.4-1.4,10.58,10.58,0,0,0,4.17-3.69,8,8,0,0,0,1.46-4.4c0-.7-.3-3-3.08-9.61A134,134,0,0,0,646,123.41a129.74,129.74,0,0,0-13.23-18,54.48,54.48,0,0,0-15-12.38l-7.32-3.9,8.11-1.77c12.53-2.73,21.95-7.36,28-13.76s8.91-14.85,8.91-25.51a41.21,41.21,0,0,0-2.7-14.86,35.45,35.45,0,0,0-7.81-12.18A36.21,36.21,0,0,0,633,13,42.67,42.67,0,0,0,620.35,9.6a152.69,152.69,0,0,0-17.65-.88H551.81c-5.87,0-10.07,1.22-12.49,3.64s-3.64,6.62-3.64,12.49V143.68c0,5.48,1.14,9.61,3.38,12.25s5.18,3.77,9.27,3.77a11.69,11.69,0,0,0,9-3.67c2.32-2.49,3.5-6.65,3.5-12.36Z"/><path class="cls-1" d="M815.68,29.8H745.2V67.72H810.1q7.16,0,10.69,3.21a10.93,10.93,0,0,1,3.53,8.48A11.34,11.34,0,0,1,820.84,88q-3.48,3.31-10.74,3.32H745.2v43.93h72.9q7.37,0,11.12,3.43a11.76,11.76,0,0,1,3.74,9.11,11.5,11.5,0,0,1-3.74,8.9q-3.74,3.43-11.12,3.43h-85q-10.22,0-14.7-4.53t-4.48-14.65V24.85a26,26,0,0,1,2-11,12.44,12.44,0,0,1,6.27-6.22,26.33,26.33,0,0,1,10.9-2h82.59q7.48,0,11.12,3.32a11.21,11.21,0,0,1,3.63,8.69,11.34,11.34,0,0,1-3.63,8.8Q823.16,29.8,815.68,29.8Z"/><path class="cls-1" d="M818.1,163.16h-85c-7.63,0-13.3-1.83-16.86-5.43s-5.36-9.24-5.36-16.79V24.85a29.11,29.11,0,0,1,2.29-12.3,15.47,15.47,0,0,1,7.76-7.69,29.42,29.42,0,0,1,12.17-2.23h82.59c5.75,0,10.18,1.39,13.17,4.12a14.18,14.18,0,0,1,4.63,10.94,14.32,14.32,0,0,1-4.63,11c-3,2.73-7.42,4.11-13.17,4.11H748.25V64.68H810.1c5.53,0,9.81,1.35,12.74,4a13.92,13.92,0,0,1,4.53,10.73,14.33,14.33,0,0,1-4.42,10.79C820,93,815.73,94.37,810.1,94.37H748.25V132.2H818.1c5.68,0,10.11,1.42,13.17,4.22A14.74,14.74,0,0,1,836,147.79a14.48,14.48,0,0,1-4.73,11.15C828.21,161.74,823.78,163.16,818.1,163.16Zm-85-154.44a23.51,23.51,0,0,0-9.64,1.68,9.41,9.41,0,0,0-4.78,4.74A23.26,23.26,0,0,0,717,24.85V140.94c0,5.88,1.21,10.09,3.6,12.5s6.59,3.63,12.53,3.63h85c4.11,0,7.16-.88,9.06-2.63a8.52,8.52,0,0,0,2.75-6.66,8.78,8.78,0,0,0-2.75-6.87c-1.9-1.74-5-2.62-9.06-2.62H742.16v-50H810.1c4,0,6.92-.83,8.64-2.47a8.35,8.35,0,0,0,2.53-6.39,8,8,0,0,0-2.54-6.23c-1.76-1.6-4.67-2.41-8.64-2.41H742.16v-44h73.52c4.18,0,7.23-.85,9.06-2.52a8.36,8.36,0,0,0,2.64-6.55,8.22,8.22,0,0,0-2.64-6.44c-1.84-1.68-4.88-2.53-9.06-2.53Z"/></g></g></svg>